<svg width="50" height="50" xmlns="http://www.w3.org/2000/svg" xmlns:xlink="http://www.w3.org/1999/xlink"><defs><path id="path-1" d="M0 0h44v44H0z"/></defs><g id="Tagesanzeiger" stroke="none" stroke-width="1" fill="none" fill-rule="evenodd"><path id="Size" d="M0 0h50v50H0z"/><g id="Group-3" transform="translate(3 3)"><mask id="mask-2" fill="#fff"><use xlink:href="#path-1"/></mask><path d="M17.888 41.062c-.876.184-1.773.28-2.684.28C7.3 41.343.866 34.159.866 25.328c0-8.06 5.391-14.892 12.54-15.89l.2.807c-4.308 2.231-7.093 7.273-7.093 12.844 0 4.747 2.004 8.947 5.06 11.482l.422-.352a1.79 1.79 0 0 0 .64-1.372V13.108l4.613-3.85c-1.978-.725-3.673-1.345-4.122-1.507-3.24-1.176-7.026-1.59-9.819.231-2.017 1.321-2.732 4.03-1.17 5.803.116.125.246.252.391.38l-.71.805a6.897 6.897 0 0 1-.367-.352c-1.629-1.472-1.58-3.982-1.3-5.98.49-3.45 3.873-6.586 7.19-7.41 2.757-.677 5.188-.373 7.58.51 1.116.412 7.707 2.814 9.07 3.31a1.908 1.908 0 0 0 2.555-1.664c.037-.514-.215-1.007-.625-1.319l-1.589-1.2.634-.865 1.513 1.111a5.009 5.009 0 0 1 2.043 3.999v.204a5.635 5.635 0 0 1-6.56 5.565v20.788a6.006 6.006 0 0 0-.29.102 8.069 8.069 0 0 0-.782.356V10.59l-2.535-.928v18.126c0 1.59-.704 3.098-1.923 4.117l-3.978 3.328c1.447.988 3.085 1.624 4.831 1.807a6.956 6.956 0 0 0 .602 4.02ZM44 37.595l-4.177 3.494h-.001l-1.014-.745a5.539 5.539 0 0 1-2.143-3.315l-1.744-8.164H26.5l-.792 3.742a6.92 6.92 0 0 1 1.094.404 7.026 7.026 0 0 1 2.825 2.443l.001.001c.244.362.46.75.643 1.157.147.317.407 1.047.41 1.055l-4.09 3.423c-.052-.19-.145-.532-.206-.724a9.507 9.507 0 0 0-.135-.388c-.527-1.43-1.44-2.77-3.322-2.914-1.62-.124-3.079.698-2.945 2.61.071 1.005.654 1.816 1.445 2.377a4.826 4.826 0 0 0 2.473.87c.71.039 1.44-.089 2.106-.37l.416.99a5.883 5.883 0 0 1-2.585.45 5.951 5.951 0 0 1-5.565-5.915c0-2.409 1.412-4.391 3.776-5.305a5.786 5.786 0 0 1 1.836-.364 6.29 6.29 0 0 1 .767.01L30.06 6.852a.035.035 0 0 1-.002-.004 7.38 7.38 0 0 0 .163-1.535l-.001-.217A6.746 6.746 0 0 0 28.545.718c2.621.026 5.249 1.422 6.705 4.103.395-.489 1.108-1.133 2.2-1.276 1.193-.156 2.538.244 3.854 1.36l.069.06-.703.81-.063-.036c-1.616-.925-2.921-.395-3.527.577-.603.966-.513 2.674-.337 3.708L42.088 35c.137.641.465 1.225.94 1.676l.972.92ZM33.85 23.857 30.688 9.066l-3.128 14.79h6.29Z" id="Fill-1" fill="#000" mask="url(#mask-2)"/></g></g></svg>